<?xml version="1.0" encoding="UTF-8" standalone="no"?>
<!DOCTYPE svg PUBLIC "-//W3C//DTD SVG 1.1//EN" "http://www.w3.org/Graphics/SVG/1.1/DTD/svg11.dtd">
<svg width="100%" height="100%" viewBox="0 0 1569 1070" version="1.1" xmlns="http://www.w3.org/2000/svg" xmlns:xlink="http://www.w3.org/1999/xlink" xml:space="preserve" xmlns:serif="http://www.serif.com/" style="fill-rule:evenodd;clip-rule:evenodd;stroke-linejoin:round;stroke-miterlimit:2;">
    <g transform="matrix(1,0,0,1,-651.882,-507.745)">
        <g>
            <g transform="matrix(0.96179,-0.273787,0.273787,0.96179,172.673,390.819)">
                <path d="M1252.84,517.022C1252.84,488.661 1229.82,465.635 1201.45,465.635L443.791,465.635C415.43,465.635 392.405,488.661 392.405,517.022L392.405,1274.68C392.405,1303.05 415.43,1326.07 443.791,1326.07L1201.45,1326.07C1229.82,1326.07 1252.84,1303.05 1252.84,1274.68L1252.84,517.022Z" style="fill:rgb(205,205,205);"/>
            </g>
            <g transform="matrix(0.931491,0.363763,-0.363763,0.931491,299.094,-463.533)">
                <path d="M928.61,1093.49L928.61,1398.37C928.61,1426.73 951.635,1449.76 979.997,1449.76L1737.66,1449.76C1766.02,1449.76 1789.05,1426.73 1789.05,1398.37L1789.05,640.706C1789.05,612.345 1766.02,589.319 1737.66,589.319L1295.14,589.319L928.61,1093.49ZM1666.83,782.699L1583.32,832.192C1567.7,805.088 1552.83,787.412 1538.68,779.164C1523.95,769.737 1504.95,765.023 1481.68,765.023C1453.1,765.023 1429.39,773.124 1410.53,789.327C1391.68,805.236 1382.25,825.268 1382.25,849.426C1382.25,882.715 1407,909.524 1456.49,929.851L1524.54,957.691C1579.93,980.08 1620.43,1007.4 1646.07,1039.66C1671.69,1071.92 1684.51,1111.47 1684.51,1158.31C1684.51,1221.06 1663.59,1272.91 1621.76,1313.86C1579.63,1355.1 1527.34,1375.73 1464.89,1375.73C1405.67,1375.73 1356.77,1358.2 1318.18,1323.14C1280.17,1288.08 1256.46,1238.74 1247.03,1175.11L1351.32,1152.13C1356.03,1192.19 1364.28,1219.88 1376.07,1235.2C1397.28,1264.66 1428.21,1279.39 1468.86,1279.39C1500.98,1279.39 1527.64,1268.64 1548.85,1247.13C1570.06,1225.63 1580.66,1198.38 1580.66,1165.38C1580.66,1152.13 1578.82,1139.97 1575.14,1128.93C1571.46,1117.88 1565.71,1107.71 1557.91,1098.43C1550.1,1089.15 1540.01,1080.46 1527.64,1072.36C1515.26,1064.26 1500.53,1056.53 1483.45,1049.16L1417.6,1021.77C1324.22,982.29 1277.52,924.548 1277.52,848.542C1277.52,797.282 1297.11,754.417 1336.3,719.949C1375.48,685.187 1424.23,667.805 1482.56,667.805C1561.22,667.805 1622.64,706.103 1666.83,782.699Z" style="fill:rgb(0,158,176);"/>
            </g>
            <g transform="matrix(1.11637,0.0983399,-0.0887357,1.00735,-15.6712,-104.367)">
                <path d="M773.658,913.822C773.658,913.822 1068.65,938.167 1197.03,948.762C1211.46,949.953 1225.62,943.951 1235.65,932.391C1245.68,920.832 1250.55,904.917 1248.91,888.981C1236.91,772.123 1212.85,537.639 1212.85,537.639" style="fill:rgb(63,63,63);"/>
            </g>
            <g transform="matrix(1.66195,0,0,1.25397,-1615.25,-0.234872)">
                <g transform="matrix(250.709,0,0,332.279,1753.94,1254.09)">
                    <path d="M0.234,-0L0.234,-0.595L0.021,-0.595L0.021,-0.716L0.59,-0.716L0.59,-0.595L0.378,-0.595L0.378,-0L0.234,-0Z" style="fill:rgb(63,63,63);fill-rule:nonzero;"/>
                </g>
                <g transform="matrix(250.709,0,0,332.279,1907.08,1254.09)">
                    <path d="M0.073,-0L0.073,-0.716L0.604,-0.716L0.604,-0.595L0.217,-0.595L0.217,-0.436L0.577,-0.436L0.577,-0.315L0.217,-0.315L0.217,-0.121L0.617,-0.121L0.617,-0L0.073,-0Z" style="fill:rgb(63,63,63);fill-rule:nonzero;"/>
                </g>
                <g transform="matrix(250.709,0,0,332.279,2074.3,1254.09)">
                    <path d="M0.531,-0.263L0.671,-0.219C0.649,-0.141 0.614,-0.083 0.564,-0.045C0.514,-0.007 0.45,0.012 0.374,0.012C0.278,0.012 0.2,-0.02 0.139,-0.085C0.078,-0.15 0.047,-0.239 0.047,-0.352C0.047,-0.471 0.078,-0.563 0.14,-0.629C0.201,-0.695 0.282,-0.728 0.382,-0.728C0.47,-0.728 0.541,-0.702 0.596,-0.65C0.628,-0.62 0.653,-0.576 0.669,-0.519L0.526,-0.484C0.517,-0.521 0.5,-0.551 0.473,-0.572C0.446,-0.594 0.413,-0.604 0.375,-0.604C0.322,-0.604 0.279,-0.585 0.246,-0.547C0.213,-0.509 0.196,-0.448 0.196,-0.362C0.196,-0.272 0.213,-0.207 0.245,-0.169C0.278,-0.131 0.32,-0.111 0.372,-0.111C0.41,-0.111 0.444,-0.124 0.471,-0.148C0.499,-0.172 0.519,-0.211 0.531,-0.263Z" style="fill:rgb(63,63,63);fill-rule:nonzero;"/>
                </g>
                <g transform="matrix(250.709,0,0,332.279,2255.36,1254.09)">
                    <rect x="0.072" y="-0.137" width="0.137" height="0.137" style="fill:rgb(63,63,63);fill-rule:nonzero;"/>
                </g>
            </g>
        </g>
    </g>
</svg>
